<svg xmlns="http://www.w3.org/2000/svg" version="1.1" xmlns:xlink="http://www.w3.org/1999/xlink" xmlns:svgjs="http://svgjs.dev/svgjs" width="128" height="128" viewBox="0 0 128 128"><g transform="matrix(0.8046875,0,0,0.8046875,12.221578124999994,12.221578124999994)"><svg viewBox="0 0 96 96" data-background-color="#444444" preserveAspectRatio="xMidYMid meet" height="128" width="128" xmlns="http://www.w3.org/2000/svg" xmlns:xlink="http://www.w3.org/1999/xlink"><g id="tight-bounds" transform="matrix(1,0,0,1,0.25950000000000273,0.25950000000000273)"><svg viewBox="0 0 95.481 95.481" height="95.481" width="95.481"><g><svg viewBox="0 0 95.481 95.481" height="95.481" width="95.481"><g><svg viewBox="0 0 95.481 95.481" height="95.481" width="95.481"><g id="textblocktransform"><svg viewBox="0 0 95.481 95.481" height="95.481" width="95.481" id="textblock"><g><svg viewBox="0 0 95.481 95.481" height="95.481" width="95.481"><g><svg viewBox="0 0 95.481 95.481" height="95.481" width="95.481"><g><svg xmlns:x="http://ns.adobe.com/Extensibility/1.0/" xmlns:i="http://ns.adobe.com/AdobeIllustrator/10.0/" xmlns:graph="http://ns.adobe.com/Graphs/1.0/" xmlns="http://www.w3.org/2000/svg" xmlns:xlink="http://www.w3.org/1999/xlink" xmlns:a="http://ns.adobe.com/AdobeSVGViewerExtensions/3.0/" version="1.1" x="0" y="0" viewBox="11.5 11.5 77 77" enable-background="new 0 0 100 100" xml:space="preserve" height="95.481" width="95.481" class="icon-icon-0" data-fill-palette-color="accent" id="icon-0"><path d="M50 68.5C60.201 68.5 68.5 60.201 68.5 50S60.201 31.5 50 31.5 31.5 39.799 31.5 50 39.799 68.5 50 68.5" fill="#000000" data-fill-palette-color="accent"></path><path d="M50 23.5A1 1 0 0 0 51 22.5V12.5A1 1 0 0 0 49 12.5V22.5A1 1 0 0 0 50 23.5" fill="#000000" data-fill-palette-color="accent"></path><path d="M50 31A1 1 0 0 0 51 30V27.5A1 1 0 0 0 49 27.5V30A1 1 0 0 0 50 31" fill="#000000" data-fill-palette-color="accent"></path><path d="M49 87.5A1 1 0 0 0 51 87.5V77.5A1 1 0 0 0 49 77.5z" fill="#000000" data-fill-palette-color="accent"></path><path d="M50 73.5A1 1 0 0 0 51 72.5V70A1 1 0 0 0 49 70V72.5A1 1 0 0 0 50 73.5" fill="#000000" data-fill-palette-color="accent"></path><path d="M12.5 51H22.5A1 1 0 0 0 22.5 49H12.5A1 1 0 0 0 12.5 51" fill="#000000" data-fill-palette-color="accent"></path><path d="M30 51A1 1 0 0 0 30 49H27.5A1 1 0 0 0 27.5 51z" fill="#000000" data-fill-palette-color="accent"></path><path d="M87.5 49H77.5A1 1 0 0 0 77.5 51H87.5A1 1 0 0 0 87.5 49" fill="#000000" data-fill-palette-color="accent"></path><path d="M72.5 49H70A1 1 0 0 0 70 51H72.5A1 1 0 0 0 72.5 49" fill="#000000" data-fill-palette-color="accent"></path><path d="M69.445 31.555A1 1 0 0 0 70.152 31.262L77.224 24.19A1 1 0 1 0 75.81 22.776L68.738 29.848A1 1 0 0 0 69.445 31.555" fill="#000000" data-fill-palette-color="accent"></path><path d="M64.142 36.858A1 1 0 0 0 64.85 36.565L66.617 34.797A1 1 0 1 0 65.203 33.383L63.435 35.151A1 1 0 0 0 64.142 36.858" fill="#000000" data-fill-palette-color="accent"></path><path d="M22.776 77.224A0.997 0.997 0 0 0 24.19 77.224L31.262 70.152A1 1 0 1 0 29.848 68.738L22.776 75.81A1 1 0 0 0 22.776 77.224" fill="#000000" data-fill-palette-color="accent"></path><path d="M34.797 66.617L36.565 64.849A1 1 0 1 0 35.15 63.435L33.383 65.203A1 1 0 1 0 34.797 66.617" fill="#000000" data-fill-palette-color="accent"></path><path d="M29.848 31.262A0.997 0.997 0 0 0 31.262 31.262 1 1 0 0 0 31.262 29.848L24.19 22.776A1 1 0 1 0 22.776 24.19z" fill="#000000" data-fill-palette-color="accent"></path><path d="M35.15 36.565A0.997 0.997 0 0 0 36.566 36.565 1 1 0 0 0 36.565 35.15L34.797 33.383A1 1 0 1 0 33.383 34.797z" fill="#000000" data-fill-palette-color="accent"></path><path d="M70.152 68.738A1 1 0 1 0 68.738 70.152L75.81 77.224A0.997 0.997 0 0 0 77.224 77.224 1 1 0 0 0 77.224 75.81z" fill="#000000" data-fill-palette-color="accent"></path><path d="M65.91 66.91A1 1 0 0 0 66.617 65.203L64.849 63.435A1 1 0 1 0 63.435 64.85L65.203 66.617A1 1 0 0 0 65.91 66.91" fill="#000000" data-fill-palette-color="accent"></path></svg><g></g></g></svg></g></svg></g></svg></g></svg></g><g></g></svg></g><defs></defs></svg><rect width="95.481" height="95.481" fill="none" stroke="none" visibility="hidden"></rect></g></svg></g></svg>